<svg width="60" height="60" viewBox="0 0 60 60" fill="none" xmlns="http://www.w3.org/2000/svg">
<path fill-rule="evenodd" clip-rule="evenodd" d="M55.39 29.976C60.7132 35.8843 56.1551 45.52 50.365 45.52L49.4378 42.2685C54.8064 40.689 54.5341 33.7497 49.9565 31.1656L54.4368 22.4684C51.1106 20.0495 48.0697 17.1813 48.342 12.6278L38.2725 12.6741C38.0586 10.1561 35.3224 4.08257 29.2405 4.55841L22.627 10.2618C14.788 7.68439 8.18737 13.5068 11.1116 22.2503L4.73147 28.1454C3.53195 32.3882 3.79131 39.7703 12.9401 41.8984L12.551 45.3614C0.471564 43.8876 -1.58382 33.0624 0.964337 25.6406L6.64421 20.1222C3.86911 11.9537 12.7391 3.24325 21.22 5.50348L27.7038 0.00491674C36.872 -0.166913 40.6067 4.19493 41.722 8.40476L52.6797 8.35189C51.6358 16.0578 55.7985 18.9855 60 21.5696L55.39 29.976ZM10.2622 28.8195L16.169 30.28L18.795 28.1057L20.001 29.1962L19.0154 32.3288L20.1955 35.0516L25.3437 36.4791L26.6405 28.304L23.3272 23.5456L16.0393 21.8604L15.5271 16.6196L17.0638 16.2098L18.7755 18.5361L22.601 17.9611L24.4749 13.7183L25.9402 14.095L26.5886 19.468L30.3687 21.8538L35.3289 17.8884L36.7488 19.0516L33.8246 24.755L35.9773 32.8244L40.1723 32.0975L41.3783 27.6034L39.31 23.4002L41.2551 19.501L42.6427 19.7786L42.4871 23.1491L44.121 24.755L48.141 23.2879L48.7375 24.9863L45.3465 28.1454L45.5474 34.133L38.7783 41.7662L39.3424 44.0396L44.2507 43.6365L45.4502 45.6654L40.8077 50.0801L42.312 56.1735L45.4048 57.7464V60L16.4154 59.7753L15.9745 57.5217L19.2878 54.6006L21.6479 45.1896L15.5141 40.3783L14.775 34.2123L9.73702 30.432L10.2622 28.8195Z" fill="#303030"/>
</svg>
